<svg width="529" height="528" viewBox="0 0 529 528" fill="none" xmlns="http://www.w3.org/2000/svg">
<path d="M260.167 106.111C228.44 100.04 198.721 99.6901 170.836 105.095C139.14 111.238 110.447 124.527 84.7563 144.961C60.3503 164.607 51.0034 188.702 56.576 217.453C58.8251 229.057 63.683 238.359 71.0099 245.565C83.6014 257.68 102.99 261.29 128.97 256.255C141.614 253.804 151.43 249.745 158.798 244.184C175.903 230.446 182.81 215.09 179.521 198.116C178.279 191.708 175.025 186.049 169.727 180.966C164.429 175.883 163.075 170.754 165.46 165.44C167.738 160.505 172.358 157.454 179.633 156.044C189.159 154.197 197.758 156.843 205.605 163.948C209.494 167.328 211.887 172.255 213.129 178.664C217.191 199.621 210.525 220.86 193.238 242.002C177.342 261.975 155.917 274.753 129.245 279.923C108.98 283.851 89.2007 281.934 69.9726 274.519C46.4642 265.418 32.1393 248.067 27.2046 222.607C19.92 185.022 36.6161 146.923 77.4999 108.449C110.938 76.9894 151.022 56.6409 197.612 47.6106C225.844 42.1388 261.87 40.7269 305.52 43.4086C335.887 45.25 361.533 44.0532 382.144 40.0584C400.503 36.5 411.123 31.0272 414.004 23.64C417.661 13.7662 423.197 8.02088 430.818 6.54382C438.438 5.06675 443.323 9.87059 445.505 21.1285C449.634 42.432 441.381 62.9007 420.607 82.7413C402.861 99.6589 384.531 109.861 365.306 113.587C342.444 118.018 307.304 115.664 259.854 106.351" fill="#101010"/>
<path d="M373.825 356.874C409.521 352.83 406.996 352.781 422.773 347.027C447.774 337.869 466.728 321.616 479.701 298.615C492.501 275.647 494.641 253.308 486.154 231.771C480.803 218.073 471.363 205.526 458.146 193.891C443.481 181.278 426.65 172.321 407.132 167.119C404.332 166.583 403.366 166.231 398.32 165.232C392.341 164.055 387.223 163.609 387.223 163.609C362.47 160.14 336.154 163.444 308.31 173.693C263.716 190.243 231.735 215.311 212.573 249.036C194.495 280.933 191.369 312.089 203.541 342.436C214.516 370.32 244.719 382.436 247.379 383.179C264.237 387.639 262.382 367.871 253.191 365.879C239.657 360.954 229.105 349.162 221.501 330.329C211.275 304.457 213.609 278.486 228.677 252.384C243.745 226.281 267.006 207.217 298.594 195.883C321.444 187.68 341.066 186.932 348.263 186.975C355.426 186.844 359.231 187.005 367.21 189.233C374.362 190.901 383.024 194.793 391.026 198.993C394.027 200.568 402.879 207.298 408.138 213.108C413.397 218.917 419.082 228.777 421.229 234.292C428.626 252.985 429.553 271.674 423.909 289.84C418.086 308.94 406.731 321.743 390.121 327.838C388.283 328.553 385.545 329.264 381.735 330.002C377.925 330.741 375.327 331.244 373.835 331.893C373.835 331.893 373.802 331.72 373.768 331.546C373.768 331.546 328.826 342.593 315.399 319.677C315.332 319.331 315.198 318.638 314.751 318.186C309.078 312.097 303.485 310.126 298.11 312.066C292.909 313.973 291.328 317.873 293.649 323.354C295.796 328.868 301.675 335.097 311.494 342.179C311.494 342.179 338.061 360.571 373.758 356.527" fill="#101010"/>
<path d="M332.753 350.818C334.801 384.565 326.422 414.583 307.65 441.044C291.737 463.716 270.773 480.718 244.789 492.224C219.811 503.355 196.188 507.574 173.643 505.295C151.237 502.809 135.478 493.823 126.367 478.337C118.25 464.276 117.604 450.743 124.635 437.879C130.438 427.949 139.029 420.353 150.27 415.3C158.7 411.509 167.114 410.417 175.373 412.231C183.598 413.872 189.32 417.435 192.333 422.781C195.86 428.926 194.817 435.598 188.925 443.209C183.205 450.787 180.066 454.99 179.541 455.99C176.425 462.165 176.254 467.769 179.233 472.942C184.336 481.657 194.919 482.481 211.121 475.208C239.898 465.138 264.89 399.373 267.261 343.924C268.704 328.19 269.982 322.73 269.982 322.73C275.222 273.733 296.171 218.637 308.782 198.401C310.564 195.54 318.008 182.956 326.476 172.868C334.005 163.502 342.367 153.794 351.667 143.366C354.767 139.89 358.035 137.28 361.365 135.915C366.499 133.662 370.025 134.237 371.875 137.293C373.999 140.835 372.207 145.495 366.811 151.033C358.979 158.841 352.567 166.553 347.194 174.064C339.794 185.023 333.938 203.949 333.938 203.949C325.609 231.441 324.602 272.609 330.333 327.207L332.373 350.712L332.753 350.818Z" fill="#101010"/>
</svg>
