<svg width="669" height="669" viewBox="0 0 669 669" fill="none" xmlns="http://www.w3.org/2000/svg">
<path d="M334.764 668.702C519.318 668.702 668.974 519.046 668.974 334.492C668.974 149.937 519.318 0.281128 334.764 0.281128C150.209 0.281128 0.552979 149.937 0.552979 334.492C0.552979 519.046 150.209 668.702 334.764 668.702Z" fill="#3984A1"/>
<path d="M357.715 195.84C330.991 185.15 305.052 179.805 279.743 179.805C250.975 179.805 223.622 186.565 197.684 200.084C173.003 213.132 160.741 232.625 160.741 258.721C160.741 269.253 163.414 278.214 168.601 285.759C177.562 298.493 193.911 304.938 217.491 304.938C228.967 304.938 238.242 303.051 245.63 299.436C262.922 290.318 271.568 278.056 271.568 262.651C271.568 256.834 269.682 251.332 265.909 245.987C262.136 240.642 261.822 235.926 264.809 231.682C267.638 227.752 272.197 225.866 278.8 225.866C287.446 225.866 294.52 229.638 300.179 237.184C303.009 240.8 304.266 245.516 304.266 251.332C304.266 270.354 294.834 287.803 276.127 303.366C258.835 318.143 237.927 325.689 213.718 325.689C195.326 325.689 178.348 320.658 162.785 310.912C143.764 298.964 134.174 281.358 134.174 258.249C134.174 224.136 155.239 193.639 197.527 166.915C232.111 145.064 270.625 134.06 312.913 134.06C338.536 134.06 370.291 138.933 408.019 148.68C434.272 155.439 456.909 158.74 475.616 158.74C492.279 158.74 502.498 155.754 506.27 149.78C511.144 141.763 516.96 137.675 523.877 137.675C530.794 137.675 534.252 142.706 534.252 152.924C534.252 172.26 523.563 188.766 502.026 202.6C483.633 214.39 465.87 220.206 448.42 220.206C427.67 220.206 397.33 212.189 357.401 195.997" fill="white"/>
<path d="M414.623 434.471C446.535 436.987 444.334 436.515 459.111 434.157C482.534 430.384 501.87 419.38 517.118 401.459C532.21 383.538 537.869 364.359 534.096 344.08C531.738 331.19 525.607 318.614 516.018 306.195C505.328 292.676 492.123 281.986 475.932 274.126C473.574 273.183 472.788 272.711 468.543 270.982C463.513 268.938 459.111 267.681 459.111 267.681C438.046 260.449 414.466 258.877 388.37 263.122C346.555 270.039 314.328 286.545 291.849 312.797C270.626 337.635 262.609 364.359 268.111 392.97C272.985 419.223 297.351 434.943 299.552 436.043C313.543 442.803 315.272 425.196 307.569 421.895C296.565 415.293 289.333 403.188 285.875 385.424C281.316 361.058 287.761 338.736 305.368 318.457C322.975 298.178 346.555 285.444 376.109 280.885C397.488 277.584 414.78 280.257 421.068 281.514C427.356 282.615 430.658 283.401 437.26 286.702C443.234 289.374 450.151 294.248 456.439 299.278C458.797 301.164 465.399 308.553 469.015 314.527C472.63 320.5 475.932 330.09 476.875 335.277C480.176 352.884 477.818 369.39 469.801 384.324C461.469 400.044 449.365 409.319 433.802 411.834C432.072 412.149 429.557 412.306 426.099 412.306C422.64 412.306 420.282 412.306 418.868 412.62C418.868 412.62 418.868 412.463 418.868 412.306C418.868 412.306 377.681 414.35 369.821 392.027C369.821 391.713 369.821 391.084 369.506 390.612C365.576 384.324 361.017 381.652 355.987 382.438C351.114 383.224 349.07 386.368 350.17 391.555C351.114 396.743 355.201 403.188 362.589 411.048C362.589 411.048 382.711 431.642 414.623 434.157" fill="white"/>
<path d="M379.721 422.21C375.791 452.079 363.372 476.917 342.464 496.881C324.7 514.016 303.478 525.335 278.798 530.994C255.06 536.496 233.681 536.182 214.345 530.365C195.166 524.391 182.905 513.859 177.56 498.768C172.844 485.091 174.573 473.144 182.904 463.083C189.664 455.38 198.468 450.192 209.157 447.677C217.175 445.791 224.72 446.262 231.637 449.249C238.554 452.079 242.955 456.166 244.685 461.354C246.728 467.327 244.685 472.987 238.24 478.646C231.951 484.305 228.493 487.449 227.864 488.235C224.091 493.108 222.991 497.982 224.72 503.012C227.707 511.501 236.825 514.016 252.23 510.401C279.112 506.471 312.124 453.179 323.6 405.076C327.53 391.556 329.574 386.997 329.574 386.997C342.464 345.025 370.132 300.379 384.594 284.816C386.638 282.615 395.284 272.869 404.402 265.481C412.576 258.564 421.537 251.49 431.44 243.944C434.741 241.429 438.043 239.699 441.187 239.071C446.06 237.97 449.047 239.071 450.147 242.057C451.405 245.516 449.047 249.289 443.387 253.219C435.213 258.721 428.296 264.38 422.323 270.039C413.991 278.371 405.659 293.934 405.659 293.934C393.712 316.571 385.852 352.413 381.607 401.145L379.406 422.053L379.721 422.21Z" fill="white"/>
</svg>
